<svg width="93" height="27" viewBox="0 0 93 27" fill="none" xmlns="http://www.w3.org/2000/svg">
<path d="M9.115 26.525C7.37667 26.525 5.85417 26.0875 4.5475 25.2125C3.24083 24.3375 2.22 23.1475 1.485 21.6425C0.761667 20.1375 0.4 18.44 0.4 16.55C0.4 14.625 0.7675 12.9158 1.5025 11.4225C2.24917 9.9175 3.29333 8.73333 4.635 7.87C5.97667 7.00667 7.55167 6.575 9.36 6.575C11.1567 6.575 12.6675 7.0125 13.8925 7.8875C15.1175 8.7625 16.045 9.9525 16.675 11.4575C17.305 12.9625 17.62 14.66 17.62 16.55C17.62 18.44 17.2992 20.1375 16.6575 21.6425C16.0275 23.1475 15.0825 24.3375 13.8225 25.2125C12.5625 26.0875 10.9933 26.525 9.115 26.525ZM9.885 22.29C10.9467 22.29 11.7925 22.0508 12.4225 21.5725C13.0642 21.0942 13.525 20.4233 13.805 19.56C14.085 18.6967 14.225 17.6933 14.225 16.55C14.225 15.4067 14.085 14.4033 13.805 13.54C13.525 12.6767 13.0758 12.0058 12.4575 11.5275C11.8508 11.0492 11.0517 10.81 10.06 10.81C8.99833 10.81 8.12333 11.0725 7.435 11.5975C6.75833 12.1108 6.25667 12.805 5.93 13.68C5.60333 14.5433 5.44 15.5 5.44 16.55C5.44 17.6117 5.5975 18.58 5.9125 19.455C6.2275 20.3183 6.71167 21.0067 7.365 21.52C8.01833 22.0333 8.85833 22.29 9.885 22.29ZM14.225 26V13.05H13.63V0.799999H18.425V26H14.225ZM27.415 26.525C26.0617 26.525 24.9125 26.2683 23.9675 25.755C23.0342 25.23 22.3225 24.5358 21.8325 23.6725C21.3542 22.7975 21.115 21.835 21.115 20.785C21.115 19.91 21.2492 19.1108 21.5175 18.3875C21.7858 17.6642 22.2175 17.0283 22.8125 16.48C23.4192 15.92 24.23 15.4533 25.245 15.08C25.945 14.8233 26.7792 14.5958 27.7475 14.3975C28.7158 14.1992 29.8125 14.0125 31.0375 13.8375C32.2625 13.6508 33.61 13.4467 35.08 13.225L33.365 14.17C33.365 13.05 33.0967 12.2275 32.56 11.7025C32.0233 11.1775 31.125 10.915 29.865 10.915C29.165 10.915 28.4358 11.0842 27.6775 11.4225C26.9192 11.7608 26.3883 12.3617 26.085 13.225L21.78 11.86C22.2583 10.2967 23.1567 9.025 24.475 8.045C25.7933 7.065 27.59 6.575 29.865 6.575C31.5333 6.575 33.015 6.83167 34.31 7.345C35.605 7.85833 36.585 8.745 37.25 10.005C37.6233 10.705 37.845 11.405 37.915 12.105C37.985 12.805 38.02 13.5867 38.02 14.45V26H33.855V22.115L34.45 22.92C33.5283 24.1917 32.5308 25.1133 31.4575 25.685C30.3958 26.245 29.0483 26.525 27.415 26.525ZM28.43 22.78C29.305 22.78 30.04 22.6283 30.635 22.325C31.2417 22.01 31.72 21.6542 32.07 21.2575C32.4317 20.8608 32.6767 20.5283 32.805 20.26C33.05 19.7467 33.19 19.1517 33.225 18.475C33.2717 17.7867 33.295 17.215 33.295 16.76L34.695 17.11C33.2833 17.3433 32.14 17.5417 31.265 17.705C30.39 17.8567 29.6842 17.9967 29.1475 18.125C28.6108 18.2533 28.1383 18.3933 27.73 18.545C27.2633 18.7317 26.8842 18.9358 26.5925 19.1575C26.3125 19.3675 26.1025 19.6008 25.9625 19.8575C25.8342 20.1142 25.77 20.4 25.77 20.715C25.77 21.1467 25.875 21.52 26.085 21.835C26.3067 22.1383 26.6158 22.3717 27.0125 22.535C27.4092 22.6983 27.8817 22.78 28.43 22.78ZM52.7503 26C51.4436 26.245 50.1603 26.35 48.9003 26.315C47.6519 26.2917 46.5319 26.0758 45.5403 25.6675C44.5603 25.2475 43.8136 24.5767 43.3003 23.655C42.8336 22.7917 42.5886 21.9167 42.5653 21.03C42.5419 20.1317 42.5303 19.1167 42.5303 17.985V1.85H47.2903V17.705C47.2903 18.44 47.2961 19.105 47.3078 19.7C47.3311 20.2833 47.4536 20.75 47.6753 21.1C48.0953 21.765 48.7661 22.1267 49.6878 22.185C50.6094 22.2433 51.6303 22.1967 52.7503 22.045V26ZM39.3103 10.775V7.1H52.7503V10.775H39.3103ZM61.052 26.525C59.6987 26.525 58.5495 26.2683 57.6045 25.755C56.6712 25.23 55.9595 24.5358 55.4695 23.6725C54.9912 22.7975 54.752 21.835 54.752 20.785C54.752 19.91 54.8862 19.1108 55.1545 18.3875C55.4229 17.6642 55.8545 17.0283 56.4495 16.48C57.0562 15.92 57.867 15.4533 58.882 15.08C59.582 14.8233 60.4162 14.5958 61.3845 14.3975C62.3529 14.1992 63.4495 14.0125 64.6745 13.8375C65.8995 13.6508 67.247 13.4467 68.717 13.225L67.002 14.17C67.002 13.05 66.7337 12.2275 66.197 11.7025C65.6604 11.1775 64.762 10.915 63.502 10.915C62.802 10.915 62.0729 11.0842 61.3145 11.4225C60.5562 11.7608 60.0254 12.3617 59.722 13.225L55.417 11.86C55.8954 10.2967 56.7937 9.025 58.112 8.045C59.4304 7.065 61.227 6.575 63.502 6.575C65.1704 6.575 66.652 6.83167 67.947 7.345C69.242 7.85833 70.222 8.745 70.887 10.005C71.2604 10.705 71.482 11.405 71.552 12.105C71.622 12.805 71.657 13.5867 71.657 14.45V26H67.492V22.115L68.087 22.92C67.1654 24.1917 66.1679 25.1133 65.0945 25.685C64.0329 26.245 62.6854 26.525 61.052 26.525ZM62.067 22.78C62.942 22.78 63.677 22.6283 64.272 22.325C64.8787 22.01 65.357 21.6542 65.707 21.2575C66.0687 20.8608 66.3137 20.5283 66.442 20.26C66.687 19.7467 66.827 19.1517 66.862 18.475C66.9087 17.7867 66.932 17.215 66.932 16.76L68.332 17.11C66.9204 17.3433 65.777 17.5417 64.902 17.705C64.027 17.8567 63.3212 17.9967 62.7845 18.125C62.2479 18.2533 61.7754 18.3933 61.367 18.545C60.9004 18.7317 60.5212 18.9358 60.2295 19.1575C59.9495 19.3675 59.7395 19.6008 59.5995 19.8575C59.4712 20.1142 59.407 20.4 59.407 20.715C59.407 21.1467 59.512 21.52 59.722 21.835C59.9437 22.1383 60.2529 22.3717 60.6495 22.535C61.0462 22.6983 61.5187 22.78 62.067 22.78ZM75.3973 3.5125V0.624999H77.9698V3.5125H75.3973ZM75.3973 26V7.1H77.9698V26H75.3973ZM92.3462 26C91.2846 26.2217 90.2346 26.3092 89.1962 26.2625C88.1696 26.2158 87.2479 25.9942 86.4312 25.5975C85.6262 25.2008 85.0137 24.5825 84.5937 23.7425C84.2554 23.0425 84.0687 22.3367 84.0337 21.625C84.0104 20.9017 83.9987 20.0792 83.9987 19.1575V1.85H86.5537V19.0525C86.5537 19.8458 86.5596 20.5108 86.5712 21.0475C86.5946 21.5725 86.7171 22.0392 86.9387 22.4475C87.3587 23.2292 88.0237 23.6958 88.9337 23.8475C89.8554 23.9992 90.9929 23.9642 92.3462 23.7425V26ZM79.9562 9.305V7.1H92.3462V9.305H79.9562Z" fill="#24053E"/>
</svg>
